<svg xmlns="http://www.w3.org/2000/svg" viewBox="0 0 216 65.7"><path d="M47.1 0v9.4H9.6v18.8h28.1v9.4H9.6v28.1H0.2V0H47.1z"/><path d="M61.2 56.3h-4.7V0h9.4v51.6h4.7v4.7h18.8V51.6h4.7V0h9.4v56.3h-4.7v4.7h-4.7v4.7H65.9v-4.7H61.2V56.3z"/><path d="M122.2 28.1v37.5h-9.4V0h9.4v14.1h4.7v4.7h4.7v4.7h4.7v4.7h4.7v4.7h4.7v4.7h4.7V0h9.4v65.7h-9.4V51.6h-4.7v-4.7h-4.7v-4.7h-4.7v-4.7h-4.7v-4.7h-4.7v-4.7H122.2z"/><path d="M183.2 56.3h18.8V51.6h4.7v-4.7H216v9.4h-4.7v4.7h-4.7v4.7h-28.1v-4.7h-4.7v-4.7h-4.7V9.4h4.7V4.7h4.7V0h28.1v4.7h4.7v4.7H216v9.4h-9.4v-4.7h-4.7V9.4h-18.8v4.7h-4.7V51.6h4.7V56.3z"/></svg>